# xmcd CD database file
#
# Track frame offsets:
#	150
#	16126
#	30982
#	46388
#	63168
#	74808
#	87336
#	102651
#	118541
#	132511
#	146022
#	158562
#
# Disc length: 2281 seconds
#
# Revision: 0
# Processed by: cddbd v1.5.2PL0 Copyright (c) Steve Scherf et al.
# Submitted via: CDex 1.70beta2
#
DISCID=a408e70c
DTITLE=Made to Last - Joey and Rory
DYEAR=2013
DGENRE=Country
TTITLE0=If I Needed You
TTITLE1=Good Truck
TTITLE2=Just a Cup of Coffee
TTITLE3=50,000 Names
TTITLE4=Dreamer
TTITLE5=I Love You Song
TTITLE6=I'll Sing for You
TTITLE7=Now That She's Gone
TTITLE8=Made to Last
TTITLE9=In a Cowby's Dreams
TTITLE10=Enough
TTITLE11=To Do What I Do
EXTD=YEAR: 2013
EXTT0=
EXTT1=
EXTT2=
EXTT3=
EXTT4=
EXTT5=
EXTT6=
EXTT7=
EXTT8=
EXTT9=
EXTT10=
EXTT11=
PLAYORDER=
